<svg width="12" height="13" viewBox="0 0 12 13" fill="none" xmlns="http://www.w3.org/2000/svg">
<path d="M7.75 0.583496H4.25V1.75016H7.75V0.583496ZM5.41667 8.16683H6.58333V4.66683H5.41667V8.16683ZM10.1008 4.311L10.9292 3.48266C10.6783 3.18516 10.4042 2.90516 10.1067 2.66016L9.27833 3.4885C8.34928 2.74085 7.19253 2.33332 6 2.3335C3.10083 2.3335 0.75 4.68433 0.75 7.5835C0.75 10.4827 3.095 12.8335 6 12.8335C6.98835 12.834 7.95674 12.5554 8.79366 12.0296C9.63057 11.5039 10.302 10.7524 10.7305 9.86184C11.159 8.97123 11.3273 7.97769 11.2159 6.99564C11.1045 6.01359 10.718 5.08299 10.1008 4.311ZM6 11.6668C3.7425 11.6668 1.91667 9.841 1.91667 7.5835C1.91667 5.326 3.7425 3.50016 6 3.50016C8.2575 3.50016 10.0833 5.326 10.0833 7.5835C10.0833 9.841 8.2575 11.6668 6 11.6668Z" fill="#2A2A2A"/>
</svg>
