<svg width="8" height="14" viewBox="0 0 8 14" fill="none" xmlns="http://www.w3.org/2000/svg">
<path d="M1.17032 -0.000275612C1.31972 -0.00078392 1.46733 0.0321884 1.60231 0.0962172C1.73729 0.160246 1.85621 0.253705 1.95032 0.369725L6.78032 6.36972C6.92741 6.54866 7.00781 6.7731 7.00781 7.00472C7.00781 7.23635 6.92741 7.46079 6.78032 7.63972L1.78032 13.6397C1.61059 13.8439 1.36667 13.9724 1.10225 13.9967C0.837822 14.0211 0.574541 13.9395 0.370325 13.7697C0.166108 13.6 0.037684 13.3561 0.0133042 13.0916C-0.0110755 12.8272 0.0705857 12.5639 0.240324 12.3597L4.71032 6.99972L0.390325 1.63972C0.268042 1.49294 0.190365 1.3142 0.166485 1.12465C0.142606 0.935102 0.173522 0.742677 0.255579 0.570149C0.337635 0.397622 0.467394 0.252211 0.629505 0.15112C0.791615 0.0500298 0.979291 -0.00250721 1.17032 -0.000275612Z" fill="white"/>
</svg>
