<svg width="24" height="23" viewBox="0 0 24 23" fill="none" xmlns="http://www.w3.org/2000/svg">
<circle cx="11.5" cy="12.5" r="12.5" fill="#2A2A2A"/>
<path d="M10.1703 3.99972C10.3197 3.99922 10.4673 4.03219 10.6023 4.09622C10.7373 4.16025 10.8562 4.25371 10.9503 4.36973L15.7803 10.3697C15.9274 10.5487 16.0078 10.7731 16.0078 11.0047C16.0078 11.2363 15.9274 11.4608 15.7803 11.6397L10.7803 17.6397C10.6106 17.8439 10.3667 17.9724 10.1022 17.9967C9.83782 18.0211 9.57454 17.9395 9.37032 17.7697C9.16611 17.6 9.03768 17.3561 9.0133 17.0916C8.98892 16.8272 9.07059 16.5639 9.24032 16.3597L13.7103 10.9997L9.39033 5.63972C9.26804 5.49294 9.19036 5.3142 9.16649 5.12465C9.14261 4.9351 9.17352 4.74268 9.25558 4.57015C9.33763 4.39762 9.46739 4.25221 9.6295 4.15112C9.79162 4.05003 9.97929 3.99749 10.1703 3.99972Z" fill="white"/>
</svg>
