<svg width="26" height="35" viewBox="0 0 26 35" fill="none" xmlns="http://www.w3.org/2000/svg">
<path d="M12.9995 5.09375C11.8033 5.09375 10.6339 5.44848 9.63923 6.11308C8.64459 6.77768 7.86936 7.7223 7.41158 8.82749C6.95379 9.93267 6.83402 11.1488 7.06739 12.3221C7.30077 13.4953 7.87682 14.573 8.72269 15.4189C9.56857 16.2648 10.6463 16.8408 11.8195 17.0742C12.9928 17.3076 14.2089 17.1878 15.3141 16.73C16.4193 16.2722 17.3639 15.497 18.0285 14.5024C18.6931 13.5077 19.0478 12.3383 19.0478 11.1421C19.0478 9.53797 18.4106 7.99955 17.2763 6.86527C16.142 5.73098 14.6036 5.09375 12.9995 5.09375V5.09375ZM12.9995 15.0793C12.2208 15.0793 11.4596 14.8484 10.8121 14.4158C10.1646 13.9831 9.65999 13.3682 9.36199 12.6488C9.06399 11.9294 8.98602 11.1377 9.13794 10.374C9.28986 9.61022 9.66484 8.90868 10.2155 8.35805C10.7661 7.80742 11.4676 7.43243 12.2314 7.28051C12.9951 7.1286 13.7868 7.20657 14.5062 7.50456C15.2257 7.80256 15.8406 8.30721 16.2732 8.95468C16.7058 9.60215 16.9367 10.3634 16.9367 11.1421C16.9339 12.1845 16.5179 13.1832 15.7798 13.9193C15.0418 14.6554 14.0419 15.0688 12.9995 15.0687V15.0793Z" fill="#2A2A2A"/>
<path d="M13.0009 0.111328C9.71301 0.114074 6.55984 1.41777 4.23004 3.73768C1.90024 6.05759 0.583137 9.20519 0.566406 12.493C0.566406 17.4224 3.33196 21.5497 5.35863 24.558L5.72807 25.1069C7.74448 28.0293 9.90762 30.8478 12.2092 33.5513L13.0114 34.4908L13.8136 33.5513C16.1149 30.8475 18.278 28.0291 20.2947 25.1069L20.6642 24.5474C22.6803 21.5391 25.4459 17.4224 25.4459 12.493C25.4291 9.20336 24.1106 6.05418 21.7785 3.73396C19.4464 1.41375 16.2905 0.111286 13.0009 0.111328V0.111328ZM18.9014 23.3336L18.5214 23.893C16.7059 26.6163 14.2992 29.6669 13.0009 31.1763C11.7553 29.6669 9.29585 26.6163 7.4803 23.893L7.11085 23.3336C5.24252 20.5469 2.67752 16.7363 2.67752 12.4508C2.67752 11.0951 2.94454 9.75269 3.46333 8.50021C3.98213 7.24772 4.74254 6.10968 5.70115 5.15107C6.65976 4.19246 7.7978 3.43205 9.05028 2.91326C10.3028 2.39446 11.6452 2.12744 13.0009 2.12744C14.3565 2.12744 15.6989 2.39446 16.9514 2.91326C18.2039 3.43205 19.3419 4.19246 20.3006 5.15107C21.2592 6.10968 22.0196 7.24772 22.5384 8.50021C23.0572 9.75269 23.3242 11.0951 23.3242 12.4508C23.3242 16.7786 20.7697 20.5891 18.9014 23.3336V23.3336Z" fill="#2A2A2A"/>
</svg>
