<svg width="27" height="26" viewBox="0 0 27 26" fill="none" xmlns="http://www.w3.org/2000/svg">
<path d="M22 10H20C19.9992 9.20459 19.6829 8.44199 19.1204 7.87956C18.558 7.31712 17.7954 7.00079 17 7V5C18.3256 5.00159 19.5964 5.52888 20.5338 6.46622C21.4711 7.40356 21.9984 8.6744 22 10V10Z" fill="#2A2A2A"/>
<path d="M26 10H24C23.9979 8.14413 23.2597 6.36489 21.9474 5.05259C20.6351 3.7403 18.8559 3.00212 17 3V1C19.3861 1.00265 21.6738 1.95171 23.361 3.63896C25.0483 5.32622 25.9974 7.61386 26 10V10Z" fill="#2A2A2A"/>
<path d="M23.9991 26H23.8291C4.17906 24.87 1.38906 8.29 0.999059 3.23C0.938105 2.43675 1.19474 1.65177 1.71252 1.04772C2.2303 0.443681 2.96681 0.0700446 3.76006 0.009001C3.83939 0.003001 3.91906 9.37591e-07 3.99906 9.37591e-07H9.26906C9.66962 -0.000386826 10.0611 0.119511 10.3927 0.344163C10.7243 0.568815 10.9809 0.88787 11.1291 1.26L12.6491 5C12.7954 5.36355 12.8317 5.76208 12.7535 6.14609C12.6753 6.5301 12.486 6.88267 12.2091 7.16L10.0791 9.31C10.4104 11.2013 11.3154 12.945 12.6714 14.3045C14.0273 15.664 15.7686 16.5737 17.6591 16.91L19.8291 14.76C20.1106 14.4862 20.4664 14.3013 20.8523 14.2283C21.2382 14.1554 21.6371 14.1977 21.9991 14.35L25.7691 15.86C26.1356 16.0129 26.4483 16.2714 26.6673 16.6027C26.8864 16.9339 27.0019 17.3229 26.9991 17.72V23C26.9991 23.7956 26.683 24.5587 26.1204 25.1213C25.5578 25.6839 24.7947 26 23.9991 26ZM3.99906 2C3.86774 1.99961 3.73762 2.02508 3.61615 2.07497C3.49467 2.12486 3.38421 2.19819 3.29107 2.29077C3.19793 2.38335 3.12394 2.49337 3.07333 2.61455C3.02271 2.73572 2.99645 2.86568 2.99606 2.997C2.99606 3.025 2.99706 3.05267 2.99906 3.08C3.45906 9 6.40906 23 23.9391 24C24.2037 24.0159 24.4639 23.926 24.6623 23.7501C24.8607 23.5742 24.9811 23.3267 24.9971 23.062L24.9991 23V17.72L21.2291 16.21L18.3591 19.06L17.8791 19C9.17906 17.91 7.99906 9.21 7.99906 9.12L7.93906 8.64L10.7791 5.77L9.27906 2H3.99906Z" fill="#2A2A2A"/>
</svg>
