<svg width="23" height="23" viewBox="0 0 23 23" fill="none" xmlns="http://www.w3.org/2000/svg">
<path d="M17.1997 8.56611C17.2939 8.265 17.1997 8.04419 16.7541 8.04419H15.2781C14.9025 8.04419 14.7309 8.23522 14.6366 8.44502C14.6366 8.44502 13.8861 10.2057 12.8227 11.3473C12.4794 11.6795 12.3226 11.7844 12.1355 11.7844C12.0419 11.7844 11.9059 11.6795 11.9059 11.3784V8.56611C11.9059 8.20478 11.7976 8.04419 11.4846 8.04419H9.16516C8.93093 8.04419 8.78958 8.21126 8.78958 8.37055C8.78958 8.71246 9.32131 8.79146 9.37583 9.75501V11.8453C9.37583 12.3031 9.29035 12.3867 9.10189 12.3867C8.60179 12.3867 7.38486 10.6195 6.66265 8.59655C6.52197 8.20349 6.37996 8.04484 6.00303 8.04484H4.52764C4.10562 8.04484 4.02148 8.23586 4.02148 8.44567C4.02148 8.82254 4.52158 10.6875 6.35101 13.154C7.57063 14.8383 9.28766 15.7513 10.8519 15.7513C11.7895 15.7513 11.9053 15.5486 11.9053 15.199V13.9259C11.9053 13.5205 11.9948 13.4389 12.2916 13.4389C12.5097 13.4389 12.8853 13.5451 13.7609 14.3565C14.7611 15.3188 14.9267 15.7507 15.4887 15.7507H16.9641C17.3855 15.7507 17.5962 15.548 17.475 15.1478C17.3424 14.7496 16.8645 14.17 16.2305 13.4842C15.8859 13.0931 15.371 12.6722 15.2141 12.4618C14.9954 12.1904 15.0586 12.0706 15.2141 11.8298C15.2148 11.8304 17.0126 9.39433 17.1997 8.56611V8.56611Z" fill="#F9A43F"/>
<rect x="1" y="1" width="20.99" height="20.99" rx="6" stroke="#F9A43F" stroke-width="2"/>
</svg>
